<svg width="500" height="500" viewBox="0 0 500 500" fill="none" xmlns="http://www.w3.org/2000/svg">
<circle cx="250" cy="250" r="250" fill="url(#paint0_linear)"/>
<path d="M237.314 152.625C250.983 140.631 280.276 118.011 288.094 123.481C297.867 130.318 304.272 156.85 289.03 179.186C285.675 184.102 281.173 185.536 276.156 184.694C270.245 183.702 263.618 179.55 257.31 174.206C249.506 167.595 242.188 159.159 237.314 152.625Z" fill="#FFCCEB"/>
<path d="M288.576 128.678C291.575 133.507 268.981 161.042 257.31 174.206C263.618 179.55 270.245 183.702 276.156 184.694C299.082 152.812 293.989 134.066 288.576 128.678Z" fill="#FFB2E0"/>
<path d="M187.074 172.923C168.91 173.791 132.125 177.868 130.301 187.233C128.02 198.94 141.843 222.476 168.324 227.955C174.151 229.16 178.387 227.065 181.411 222.973C184.974 218.154 186.856 210.564 187.682 202.338C188.703 192.161 188.107 181.009 187.074 172.923Z" fill="#FFCCEB"/>
<path d="M133.565 191.307C134.762 196.863 170.142 200.976 187.682 202.338C186.856 210.564 184.974 218.154 181.411 222.973C142.772 215.965 133.414 198.942 133.565 191.307Z" fill="#FFB2E0"/>
<path fill-rule="evenodd" clip-rule="evenodd" d="M249.499 349.902C304.727 349.902 349.999 308.631 349.999 253.402C302.999 274.556 161.046 327.735 220.499 345.633C231.46 348.933 239.414 349.902 249.499 349.902Z" fill="#FFCCEB"/>
<path d="M169.491 309.902C165.632 304.764 162.255 299.241 159.43 293.402C139.12 297.069 106.699 298.503 139.499 274.902L137.999 265.902C102.494 290.236 59.0856 333.102 169.491 309.902Z" fill="#FFCCEB"/>
<path d="M343.203 214.903C345.358 220.669 346.995 226.688 348.06 232.902C439.708 168.503 379.539 171.069 337.999 180.403L343.203 187.903C382.566 180.703 359.604 202.903 343.203 214.903Z" fill="#FFCCEB"/>
<path d="M203.519 161.077C171.426 177.723 159.451 211.998 159.451 250.648C159.451 261.549 161.195 272.043 164.42 281.865C183.386 269.68 217.089 245.918 239.986 251.335C242.166 246.499 249.577 237.969 261.774 242.532C271.673 232.492 295.387 218.267 333.843 213.414C309.828 153.977 248.558 149.069 220.925 154.044C220.925 154.044 240.791 213.018 237.453 214.367C234.115 215.715 213.594 179.34 203.519 161.077Z" fill="#FFCCEB"/>
<path d="M169.492 309.902C253.886 286.702 323.701 248.902 348.06 232.902C346.995 226.688 345.358 220.669 343.203 214.902C305.362 174.23 271.673 232.492 261.775 242.532C249.577 237.969 242.166 246.499 239.986 251.335C217.089 245.918 159.991 236.199 159.43 293.402C162.256 299.241 165.632 304.764 169.492 309.902Z" fill="#FFE6F5"/>
<path d="M237.453 214.367C234.115 215.715 213.594 179.34 203.519 161.077C209.04 158.213 214.862 155.849 220.925 154.044C227.979 173.528 240.791 213.018 237.453 214.367Z" fill="#FFB3E0"/>
<ellipse cx="314.259" cy="222.944" rx="15" ry="10" transform="rotate(-22 314.259 222.944)" fill="#FFB3E0"/>
<ellipse cx="187.609" cy="275.193" rx="15" ry="10" transform="rotate(-22 187.609 275.193)" fill="#FFB3E0"/>
<circle cx="280.707" cy="213.312" r="12.5" transform="rotate(-22 280.707 213.312)" fill="#493240"/>
<circle cx="204.678" cy="244.029" r="12.5" transform="rotate(-22 204.678 244.029)" fill="#493240"/>
<circle cx="206.139" cy="236.968" r="2.5" transform="rotate(-22 206.139 236.968)" fill="white"/>
<circle cx="206.139" cy="236.968" r="2.5" transform="rotate(-22 206.139 236.968)" fill="white"/>
<circle cx="206.139" cy="236.968" r="2.5" transform="rotate(-22 206.139 236.968)" fill="white"/>
<circle cx="206.139" cy="236.968" r="2.5" transform="rotate(-22 206.139 236.968)" fill="white"/>
<circle cx="283.095" cy="205.875" r="2.5" transform="rotate(-22 283.095 205.875)" fill="white"/>
<circle cx="283.095" cy="205.875" r="2.5" transform="rotate(-22 283.095 205.875)" fill="white"/>
<circle cx="283.095" cy="205.875" r="2.5" transform="rotate(-22 283.095 205.875)" fill="white"/>
<circle cx="283.095" cy="205.875" r="2.5" transform="rotate(-22 283.095 205.875)" fill="white"/>
<path d="M260.828 271.495C255.097 273.811 249.462 266.74 247.361 262.915L255.242 259.731L263.123 256.547C264.746 260.565 266.56 269.179 260.828 271.495Z" fill="white"/>
<path d="M260.828 271.495C255.097 273.811 249.462 266.74 247.361 262.915L255.242 259.731M260.828 271.495C266.56 269.179 264.746 260.565 263.123 256.547L255.242 259.731M260.828 271.495L255.242 259.731" stroke="#FFF0F9" stroke-linejoin="round"/>
<path d="M259.693 237.38C262.279 243.781 259.187 251.066 252.786 253.652C246.385 256.238 239.1 253.146 236.513 246.745C233.927 240.344 241.89 245.112 248.291 242.526C254.691 239.94 257.107 230.979 259.693 237.38Z" fill="#493240"/>
<path d="M252.786 253.652C259.187 251.066 262.279 243.781 259.693 237.38C257.107 230.979 254.691 239.94 248.291 242.526C241.89 245.112 233.927 240.344 236.513 246.745C239.1 253.146 246.385 256.238 252.786 253.652ZM252.786 253.652L254.659 258.288M254.659 258.288C262.858 257.672 278.321 254.121 274.575 244.849M254.659 258.288C248.332 263.541 234.743 271.727 230.997 262.456" stroke="#493240" stroke-width="2" stroke-linejoin="round"/>
<circle cx="344.5" cy="115.5" r="12.5" fill="#FFE5F5"/>
<defs>
<linearGradient id="paint0_linear" x1="500" y1="0" x2="0" y2="500" gradientUnits="userSpaceOnUse">
<stop stop-color="#FF0099"/>
<stop offset="1" stop-color="#493240"/>
</linearGradient>
</defs>
</svg>
